<mxfile host="app.diagrams.net" modified="2022-03-17T14:34:46.635Z" agent="5.0 (Windows NT 10.0; Win64; x64) AppleWebKit/537.36 (KHTML, like Gecko) Chrome/99.0.4844.51 Safari/537.36" etag="rQKmxdEZppUcgsQbNDHi" version="17.1.3" type="github">
  <diagram name="Page-1" id="c37626ed-c26b-45fb-9056-f9ebc6bb27b6">
    <mxGraphModel dx="1313" dy="793" grid="1" gridSize="10" guides="1" tooltips="1" connect="1" arrows="1" fold="1" page="1" pageScale="1" pageWidth="1100" pageHeight="850" background="none" math="0" shadow="0">
      <root>
        <mxCell id="0" />
        <mxCell id="1" parent="0" />
        <mxCell id="LEgBM_eSh59DEeIALDFT-1" value="172.22.60.1" style="shape=mxgraph.cisco.security.router_firewall;sketch=0;html=1;pointerEvents=1;dashed=0;fillColor=#036897;strokeColor=#ffffff;strokeWidth=2;verticalLabelPosition=bottom;verticalAlign=top;align=center;outlineConnect=0;" vertex="1" parent="1">
          <mxGeometry x="840" y="164" width="78" height="62" as="geometry" />
        </mxCell>
        <mxCell id="LEgBM_eSh59DEeIALDFT-5" value="SAC-HSW-001&lt;br&gt;172.22.60.50" style="shape=mxgraph.cisco.switches.workgroup_switch;sketch=0;html=1;pointerEvents=1;dashed=0;fillColor=#036897;strokeColor=#ffffff;strokeWidth=2;verticalLabelPosition=bottom;verticalAlign=top;align=center;outlineConnect=0;" vertex="1" parent="1">
          <mxGeometry x="390" y="40" width="101" height="50" as="geometry" />
        </mxCell>
        <mxCell id="LEgBM_eSh59DEeIALDFT-6" value="SAC-CSW-009&lt;br&gt;172.22.60.9" style="shape=mxgraph.cisco.switches.workgroup_switch;sketch=0;html=1;pointerEvents=1;dashed=0;fillColor=#036897;strokeColor=#ffffff;strokeWidth=2;verticalLabelPosition=bottom;verticalAlign=top;align=center;outlineConnect=0;" vertex="1" parent="1">
          <mxGeometry x="390" y="170" width="101" height="50" as="geometry" />
        </mxCell>
        <mxCell id="LEgBM_eSh59DEeIALDFT-7" value="SAC-HSW-003&lt;br&gt;172.22.60.8" style="shape=mxgraph.cisco.switches.workgroup_switch;sketch=0;html=1;pointerEvents=1;dashed=0;fillColor=#036897;strokeColor=#ffffff;strokeWidth=2;verticalLabelPosition=bottom;verticalAlign=top;align=center;outlineConnect=0;" vertex="1" parent="1">
          <mxGeometry x="390" y="310" width="101" height="50" as="geometry" />
        </mxCell>
        <mxCell id="LEgBM_eSh59DEeIALDFT-8" value="SAC-HSW-002&lt;br&gt;172.22.60.251" style="shape=mxgraph.cisco.switches.workgroup_switch;sketch=0;html=1;pointerEvents=1;dashed=0;fillColor=#036897;strokeColor=#ffffff;strokeWidth=2;verticalLabelPosition=bottom;verticalAlign=top;align=center;outlineConnect=0;" vertex="1" parent="1">
          <mxGeometry x="170" y="300" width="101" height="50" as="geometry" />
        </mxCell>
        <mxCell id="LEgBM_eSh59DEeIALDFT-15" value="" style="endArrow=classic;html=1;rounded=0;" edge="1" parent="1" source="LEgBM_eSh59DEeIALDFT-5" target="LEgBM_eSh59DEeIALDFT-1">
          <mxGeometry relative="1" as="geometry">
            <mxPoint x="300" y="170" as="sourcePoint" />
            <mxPoint x="490" y="170" as="targetPoint" />
          </mxGeometry>
        </mxCell>
        <mxCell id="LEgBM_eSh59DEeIALDFT-17" value="Port 1" style="edgeLabel;resizable=0;html=1;align=left;verticalAlign=bottom;" connectable="0" vertex="1" parent="LEgBM_eSh59DEeIALDFT-15">
          <mxGeometry x="-1" relative="1" as="geometry" />
        </mxCell>
        <mxCell id="LEgBM_eSh59DEeIALDFT-19" value="" style="endArrow=classic;html=1;rounded=0;entryX=0;entryY=0.645;entryDx=0;entryDy=0;entryPerimeter=0;" edge="1" parent="1" source="LEgBM_eSh59DEeIALDFT-7" target="LEgBM_eSh59DEeIALDFT-1">
          <mxGeometry relative="1" as="geometry">
            <mxPoint x="220" y="390" as="sourcePoint" />
            <mxPoint x="380" y="390" as="targetPoint" />
          </mxGeometry>
        </mxCell>
        <mxCell id="LEgBM_eSh59DEeIALDFT-21" value="Port 1" style="edgeLabel;resizable=0;html=1;align=left;verticalAlign=bottom;" connectable="0" vertex="1" parent="LEgBM_eSh59DEeIALDFT-19">
          <mxGeometry x="-1" relative="1" as="geometry" />
        </mxCell>
        <mxCell id="LEgBM_eSh59DEeIALDFT-23" value="" style="endArrow=classic;html=1;rounded=0;exitX=0.87;exitY=0.74;exitDx=0;exitDy=0;exitPerimeter=0;" edge="1" parent="1" source="LEgBM_eSh59DEeIALDFT-8" target="LEgBM_eSh59DEeIALDFT-7">
          <mxGeometry relative="1" as="geometry">
            <mxPoint x="160" y="270" as="sourcePoint" />
            <mxPoint x="200" y="360" as="targetPoint" />
          </mxGeometry>
        </mxCell>
        <mxCell id="LEgBM_eSh59DEeIALDFT-26" value="Port 26" style="edgeLabel;resizable=0;html=1;align=right;verticalAlign=bottom;" connectable="0" vertex="1" parent="LEgBM_eSh59DEeIALDFT-23">
          <mxGeometry x="1" relative="1" as="geometry">
            <mxPoint x="18" y="10" as="offset" />
          </mxGeometry>
        </mxCell>
        <mxCell id="LEgBM_eSh59DEeIALDFT-28" value="Port 1" style="edgeLabel;html=1;align=center;verticalAlign=middle;resizable=0;points=[];" vertex="1" connectable="0" parent="LEgBM_eSh59DEeIALDFT-23">
          <mxGeometry x="-0.8572" y="1" relative="1" as="geometry">
            <mxPoint as="offset" />
          </mxGeometry>
        </mxCell>
        <mxCell id="LEgBM_eSh59DEeIALDFT-33" value="SAC-MON-001&lt;br&gt;172.22.60.18" style="shape=mxgraph.cisco.computers_and_peripherals.workstation;sketch=0;html=1;pointerEvents=1;dashed=0;fillColor=#036897;strokeColor=#ffffff;strokeWidth=2;verticalLabelPosition=bottom;verticalAlign=top;align=center;outlineConnect=0;labelBackgroundColor=none;" vertex="1" parent="1">
          <mxGeometry x="20" y="690" width="83" height="62" as="geometry" />
        </mxCell>
        <mxCell id="LEgBM_eSh59DEeIALDFT-34" value="" style="endArrow=classic;html=1;rounded=0;entryX=0;entryY=0.5;entryDx=0;entryDy=0;entryPerimeter=0;" edge="1" parent="1" source="LEgBM_eSh59DEeIALDFT-6" target="LEgBM_eSh59DEeIALDFT-1">
          <mxGeometry relative="1" as="geometry">
            <mxPoint x="501" y="163.6911928651059" as="sourcePoint" />
            <mxPoint x="780" y="297" as="targetPoint" />
          </mxGeometry>
        </mxCell>
        <mxCell id="LEgBM_eSh59DEeIALDFT-35" value="Port 48" style="edgeLabel;resizable=0;html=1;align=left;verticalAlign=bottom;" connectable="0" vertex="1" parent="LEgBM_eSh59DEeIALDFT-34">
          <mxGeometry x="-1" relative="1" as="geometry" />
        </mxCell>
        <mxCell id="LEgBM_eSh59DEeIALDFT-36" value="SAC-ESX-002&lt;br&gt;" style="shape=mxgraph.cisco.servers.fileserver;sketch=0;html=1;pointerEvents=1;dashed=0;fillColor=#036897;strokeColor=#ffffff;strokeWidth=2;verticalLabelPosition=bottom;verticalAlign=top;align=center;outlineConnect=0;labelBackgroundColor=none;" vertex="1" parent="1">
          <mxGeometry x="271" y="530" width="43" height="62" as="geometry" />
        </mxCell>
        <mxCell id="LEgBM_eSh59DEeIALDFT-37" value="SAC-ESX-004" style="shape=mxgraph.cisco.servers.fileserver;sketch=0;html=1;pointerEvents=1;dashed=0;fillColor=#036897;strokeColor=#ffffff;strokeWidth=2;verticalLabelPosition=bottom;verticalAlign=top;align=center;outlineConnect=0;labelBackgroundColor=none;" vertex="1" parent="1">
          <mxGeometry x="590" y="530" width="43" height="62" as="geometry" />
        </mxCell>
        <mxCell id="LEgBM_eSh59DEeIALDFT-38" value="" style="endArrow=classic;html=1;rounded=0;exitX=0.5;exitY=0;exitDx=0;exitDy=0;exitPerimeter=0;" edge="1" parent="1" source="LEgBM_eSh59DEeIALDFT-36" target="LEgBM_eSh59DEeIALDFT-7">
          <mxGeometry relative="1" as="geometry">
            <mxPoint x="150" y="620" as="sourcePoint" />
            <mxPoint x="366.92156862745105" y="390" as="targetPoint" />
          </mxGeometry>
        </mxCell>
        <mxCell id="LEgBM_eSh59DEeIALDFT-40" value="vmnic0&lt;br&gt;vmnic1" style="edgeLabel;resizable=0;html=1;align=left;verticalAlign=bottom;labelBackgroundColor=none;" connectable="0" vertex="1" parent="LEgBM_eSh59DEeIALDFT-38">
          <mxGeometry x="-1" relative="1" as="geometry" />
        </mxCell>
        <mxCell id="LEgBM_eSh59DEeIALDFT-41" value="Port 4" style="edgeLabel;resizable=0;html=1;align=right;verticalAlign=bottom;" connectable="0" vertex="1" parent="LEgBM_eSh59DEeIALDFT-38">
          <mxGeometry x="1" relative="1" as="geometry">
            <mxPoint x="79" y="60" as="offset" />
          </mxGeometry>
        </mxCell>
        <mxCell id="LEgBM_eSh59DEeIALDFT-42" value="" style="endArrow=classic;html=1;rounded=0;exitX=0.13;exitY=0.08;exitDx=0;exitDy=0;exitPerimeter=0;entryX=0.5;entryY=0.98;entryDx=0;entryDy=0;entryPerimeter=0;" edge="1" parent="1" source="LEgBM_eSh59DEeIALDFT-37" target="LEgBM_eSh59DEeIALDFT-7">
          <mxGeometry relative="1" as="geometry">
            <mxPoint x="460" y="480" as="sourcePoint" />
            <mxPoint x="520" y="400" as="targetPoint" />
          </mxGeometry>
        </mxCell>
        <mxCell id="LEgBM_eSh59DEeIALDFT-44" value="vmnic1" style="edgeLabel;resizable=0;html=1;align=left;verticalAlign=bottom;labelBackgroundColor=none;" connectable="0" vertex="1" parent="LEgBM_eSh59DEeIALDFT-42">
          <mxGeometry x="-1" relative="1" as="geometry">
            <mxPoint x="-6" y="-15" as="offset" />
          </mxGeometry>
        </mxCell>
        <mxCell id="LEgBM_eSh59DEeIALDFT-45" value="Port 12&lt;br&gt;Port 16" style="edgeLabel;html=1;align=center;verticalAlign=middle;resizable=0;points=[];" vertex="1" connectable="0" parent="LEgBM_eSh59DEeIALDFT-42">
          <mxGeometry x="0.7096" y="1" relative="1" as="geometry">
            <mxPoint x="-93" y="24" as="offset" />
          </mxGeometry>
        </mxCell>
        <mxCell id="LEgBM_eSh59DEeIALDFT-46" value="SAC-ADC-001&lt;br&gt;172.22.60.16" style="shape=mxgraph.cisco.computers_and_peripherals.workstation;sketch=0;html=1;pointerEvents=1;dashed=0;fillColor=#036897;strokeColor=#ffffff;strokeWidth=2;verticalLabelPosition=bottom;verticalAlign=top;align=center;outlineConnect=0;labelBackgroundColor=none;" vertex="1" parent="1">
          <mxGeometry x="110" y="690" width="83" height="62" as="geometry" />
        </mxCell>
        <mxCell id="LEgBM_eSh59DEeIALDFT-47" value="SAC-FSR-004&lt;br&gt;172.22.60.34" style="shape=mxgraph.cisco.computers_and_peripherals.workstation;sketch=0;html=1;pointerEvents=1;dashed=0;fillColor=#036897;strokeColor=#ffffff;strokeWidth=2;verticalLabelPosition=bottom;verticalAlign=top;align=center;outlineConnect=0;labelBackgroundColor=none;" vertex="1" parent="1">
          <mxGeometry x="200" y="690" width="83" height="62" as="geometry" />
        </mxCell>
        <mxCell id="LEgBM_eSh59DEeIALDFT-48" value="SAC-RCO-P02&lt;br&gt;172.22.60.229" style="shape=mxgraph.cisco.computers_and_peripherals.workstation;sketch=0;html=1;pointerEvents=1;dashed=0;fillColor=#036897;strokeColor=#ffffff;strokeWidth=2;verticalLabelPosition=bottom;verticalAlign=top;align=center;outlineConnect=0;labelBackgroundColor=none;" vertex="1" parent="1">
          <mxGeometry x="290" y="690" width="83" height="62" as="geometry" />
        </mxCell>
        <mxCell id="LEgBM_eSh59DEeIALDFT-49" value="SAC-WEB-001&lt;br&gt;172.22.60.30" style="shape=mxgraph.cisco.computers_and_peripherals.workstation;sketch=0;html=1;pointerEvents=1;dashed=0;fillColor=#036897;strokeColor=#ffffff;strokeWidth=2;verticalLabelPosition=bottom;verticalAlign=top;align=center;outlineConnect=0;labelBackgroundColor=none;" vertex="1" parent="1">
          <mxGeometry x="380" y="690" width="83" height="62" as="geometry" />
        </mxCell>
        <mxCell id="LEgBM_eSh59DEeIALDFT-50" value="SAC-DPS-003&lt;br&gt;172.22.60.15" style="shape=mxgraph.cisco.computers_and_peripherals.workstation;sketch=0;html=1;pointerEvents=1;dashed=0;fillColor=#036897;strokeColor=#ffffff;strokeWidth=2;verticalLabelPosition=bottom;verticalAlign=top;align=center;outlineConnect=0;labelBackgroundColor=none;" vertex="1" parent="1">
          <mxGeometry x="550" y="690" width="83" height="62" as="geometry" />
        </mxCell>
        <mxCell id="LEgBM_eSh59DEeIALDFT-51" value="SAC-SQL-003&lt;br&gt;172.22.60.13" style="shape=mxgraph.cisco.computers_and_peripherals.workstation;sketch=0;html=1;pointerEvents=1;dashed=0;fillColor=#036897;strokeColor=#ffffff;strokeWidth=2;verticalLabelPosition=bottom;verticalAlign=top;align=center;outlineConnect=0;labelBackgroundColor=none;" vertex="1" parent="1">
          <mxGeometry x="633" y="690" width="83" height="62" as="geometry" />
        </mxCell>
        <mxCell id="LEgBM_eSh59DEeIALDFT-54" value="SAC-FSR-001&lt;br&gt;172.22.60.17" style="shape=mxgraph.cisco.computers_and_peripherals.workstation;sketch=0;html=1;pointerEvents=1;dashed=0;fillColor=#036897;strokeColor=#ffffff;strokeWidth=2;verticalLabelPosition=bottom;verticalAlign=top;align=center;outlineConnect=0;labelBackgroundColor=none;" vertex="1" parent="1">
          <mxGeometry x="467" y="690" width="83" height="62" as="geometry" />
        </mxCell>
        <mxCell id="LEgBM_eSh59DEeIALDFT-57" value="" style="endArrow=classic;html=1;rounded=0;exitX=0.5;exitY=0;exitDx=0;exitDy=0;exitPerimeter=0;labelBackgroundColor=none;" edge="1" parent="1" source="LEgBM_eSh59DEeIALDFT-33" target="LEgBM_eSh59DEeIALDFT-36">
          <mxGeometry width="50" height="50" relative="1" as="geometry">
            <mxPoint x="70" y="630" as="sourcePoint" />
            <mxPoint x="120" y="580" as="targetPoint" />
          </mxGeometry>
        </mxCell>
        <mxCell id="LEgBM_eSh59DEeIALDFT-58" value="" style="endArrow=classic;html=1;rounded=0;labelBackgroundColor=none;" edge="1" parent="1" source="LEgBM_eSh59DEeIALDFT-46" target="LEgBM_eSh59DEeIALDFT-36">
          <mxGeometry width="50" height="50" relative="1" as="geometry">
            <mxPoint x="140" y="600" as="sourcePoint" />
            <mxPoint x="190" y="550" as="targetPoint" />
          </mxGeometry>
        </mxCell>
        <mxCell id="LEgBM_eSh59DEeIALDFT-59" value="" style="endArrow=classic;html=1;rounded=0;labelBackgroundColor=none;" edge="1" parent="1" source="LEgBM_eSh59DEeIALDFT-48" target="LEgBM_eSh59DEeIALDFT-36">
          <mxGeometry width="50" height="50" relative="1" as="geometry">
            <mxPoint x="80" y="500" as="sourcePoint" />
            <mxPoint x="130" y="450" as="targetPoint" />
          </mxGeometry>
        </mxCell>
        <mxCell id="LEgBM_eSh59DEeIALDFT-60" value="" style="endArrow=classic;html=1;rounded=0;labelBackgroundColor=none;" edge="1" parent="1" source="LEgBM_eSh59DEeIALDFT-49" target="LEgBM_eSh59DEeIALDFT-36">
          <mxGeometry width="50" height="50" relative="1" as="geometry">
            <mxPoint x="50" y="460" as="sourcePoint" />
            <mxPoint x="100" y="410" as="targetPoint" />
          </mxGeometry>
        </mxCell>
        <mxCell id="LEgBM_eSh59DEeIALDFT-61" value="" style="endArrow=classic;html=1;rounded=0;labelBackgroundColor=none;" edge="1" parent="1" source="LEgBM_eSh59DEeIALDFT-47" target="LEgBM_eSh59DEeIALDFT-36">
          <mxGeometry width="50" height="50" relative="1" as="geometry">
            <mxPoint x="150" y="540" as="sourcePoint" />
            <mxPoint x="200" y="490" as="targetPoint" />
          </mxGeometry>
        </mxCell>
        <mxCell id="LEgBM_eSh59DEeIALDFT-62" value="" style="endArrow=classic;html=1;rounded=0;labelBackgroundColor=none;" edge="1" parent="1" source="LEgBM_eSh59DEeIALDFT-54" target="LEgBM_eSh59DEeIALDFT-36">
          <mxGeometry width="50" height="50" relative="1" as="geometry">
            <mxPoint x="260" y="480" as="sourcePoint" />
            <mxPoint x="310" y="430" as="targetPoint" />
          </mxGeometry>
        </mxCell>
        <mxCell id="LEgBM_eSh59DEeIALDFT-63" value="" style="endArrow=classic;html=1;rounded=0;labelBackgroundColor=none;" edge="1" parent="1" source="LEgBM_eSh59DEeIALDFT-51" target="LEgBM_eSh59DEeIALDFT-37">
          <mxGeometry width="50" height="50" relative="1" as="geometry">
            <mxPoint x="550" y="640" as="sourcePoint" />
            <mxPoint x="600" y="590" as="targetPoint" />
          </mxGeometry>
        </mxCell>
        <mxCell id="LEgBM_eSh59DEeIALDFT-64" value="" style="endArrow=classic;html=1;rounded=0;labelBackgroundColor=none;" edge="1" parent="1" source="LEgBM_eSh59DEeIALDFT-50" target="LEgBM_eSh59DEeIALDFT-37">
          <mxGeometry width="50" height="50" relative="1" as="geometry">
            <mxPoint x="610" y="670" as="sourcePoint" />
            <mxPoint x="660" y="620" as="targetPoint" />
          </mxGeometry>
        </mxCell>
        <mxCell id="LEgBM_eSh59DEeIALDFT-103" value="SAC-BKP-006&lt;br&gt;172.22.60.32" style="shape=mxgraph.cisco.computers_and_peripherals.workstation;sketch=0;html=1;pointerEvents=1;dashed=0;fillColor=#036897;strokeColor=#ffffff;strokeWidth=2;verticalLabelPosition=bottom;verticalAlign=top;align=center;outlineConnect=0;labelBackgroundColor=none;" vertex="1" parent="1">
          <mxGeometry x="730" y="530" width="83" height="62" as="geometry" />
        </mxCell>
        <mxCell id="LEgBM_eSh59DEeIALDFT-106" value="" style="endArrow=classic;html=1;rounded=0;labelBackgroundColor=none;" edge="1" parent="1" source="LEgBM_eSh59DEeIALDFT-103" target="LEgBM_eSh59DEeIALDFT-7">
          <mxGeometry width="50" height="50" relative="1" as="geometry">
            <mxPoint x="10" y="470" as="sourcePoint" />
            <mxPoint x="60" y="420" as="targetPoint" />
          </mxGeometry>
        </mxCell>
        <mxCell id="LEgBM_eSh59DEeIALDFT-107" value="&lt;font style=&quot;font-size: 10px&quot;&gt;Port 7&lt;/font&gt;" style="text;html=1;align=center;verticalAlign=middle;resizable=0;points=[];autosize=1;strokeColor=none;fillColor=none;" vertex="1" parent="1">
          <mxGeometry x="530" y="400" width="40" height="20" as="geometry" />
        </mxCell>
        <mxCell id="LEgBM_eSh59DEeIALDFT-108" value="SAC-RCO-P01&lt;br&gt;172.22.60.29" style="shape=mxgraph.cisco.computers_and_peripherals.workstation;sketch=0;html=1;pointerEvents=1;dashed=0;fillColor=#036897;strokeColor=#ffffff;strokeWidth=2;verticalLabelPosition=bottom;verticalAlign=top;align=center;outlineConnect=0;labelBackgroundColor=none;" vertex="1" parent="1">
          <mxGeometry x="835" y="530" width="83" height="62" as="geometry" />
        </mxCell>
        <mxCell id="LEgBM_eSh59DEeIALDFT-112" value="" style="endArrow=classic;html=1;rounded=0;labelBackgroundColor=none;fontSize=10;" edge="1" parent="1" source="LEgBM_eSh59DEeIALDFT-108" target="LEgBM_eSh59DEeIALDFT-7">
          <mxGeometry width="50" height="50" relative="1" as="geometry">
            <mxPoint x="750" y="420" as="sourcePoint" />
            <mxPoint x="800" y="370" as="targetPoint" />
          </mxGeometry>
        </mxCell>
        <mxCell id="LEgBM_eSh59DEeIALDFT-113" value="Port 18" style="text;html=1;align=center;verticalAlign=middle;resizable=0;points=[];autosize=1;strokeColor=none;fillColor=none;fontSize=10;" vertex="1" parent="1">
          <mxGeometry x="540" y="370" width="50" height="20" as="geometry" />
        </mxCell>
      </root>
    </mxGraphModel>
  </diagram>
</mxfile>
